<?xml version="1.0" standalone="no"?>
<!DOCTYPE svg PUBLIC "-//W3C//DTD SVG 20010904//EN"
 "http://www.w3.org/TR/2001/REC-SVG-20010904/DTD/svg10.dtd">
<svg version="1.0" xmlns="http://www.w3.org/2000/svg"
 width="522.000000pt" height="521.000000pt" viewBox="0 0 522.000000 521.000000"
 preserveAspectRatio="xMidYMid meet">
<metadata>
Created by potrace 1.16, written by Peter Selinger 2001-2019
</metadata>
<g transform="translate(0.000000,521.000000) scale(0.100000,-0.100000)"
fill="#000000" stroke="none">
<path d="M2330 5109 c-184 -21 -376 -64 -565 -129 -139 -47 -404 -176 -520
-252 l-80 -53 128 -8 c128 -8 129 -8 168 17 21 14 47 26 56 26 26 0 38 12 38
35 0 11 6 19 13 17 8 -1 16 6 19 17 6 22 36 38 41 21 3 -7 8 -8 16 -1 11 9 28
6 146 -31 19 -6 54 -24 78 -39 24 -16 49 -29 56 -29 8 0 21 -11 30 -25 9 -14
22 -25 29 -25 8 0 24 -12 38 -26 l24 -26 -125 3 -125 4 4 -60 c4 -73 11 -87
56 -115 47 -29 65 -21 65 30 0 31 7 47 26 67 23 23 31 25 75 20 96 -12 137
-68 159 -217 6 -47 15 -92 19 -100 4 -8 6 -35 5 -59 -2 -31 2 -49 13 -56 11
-9 13 -14 5 -19 -27 -16 -15 -55 55 -191 16 -31 27 -70 44 -165 14 -76 33
-104 67 -96 89 22 113 27 167 37 110 20 402 -17 446 -57 8 -7 23 -14 32 -14
29 0 19 -18 -18 -31 -19 -7 -37 -21 -41 -31 -3 -10 -14 -23 -25 -28 -10 -6
-19 -19 -19 -30 0 -10 -4 -22 -10 -25 -5 -3 -12 -29 -16 -57 -9 -63 -52 -120
-77 -100 -12 10 -19 6 -41 -22 -16 -21 -38 -37 -58 -42 -18 -4 -28 -9 -21 -11
11 -4 2 -20 -35 -59 -15 -16 0 -54 22 -54 8 0 26 -13 39 -30 14 -16 30 -30 35
-30 5 0 59 -48 119 -107 138 -136 237 -268 322 -428 24 -44 54 -94 67 -112 21
-28 29 -32 57 -26 17 3 38 10 44 16 7 5 21 6 30 2 10 -5 43 -9 73 -10 50 -1
166 -16 230 -30 14 -3 50 -8 80 -11 30 -4 60 -11 67 -16 7 -5 17 -7 24 -3 6 4
15 1 20 -6 8 -12 10 -12 18 0 11 18 45 6 38 -13 -4 -10 13 -18 63 -30 81 -20
150 -52 150 -69 0 -7 15 -18 33 -25 58 -21 317 -248 317 -278 0 -7 10 -23 23
-36 43 -43 120 -198 138 -278 5 -19 16 -64 24 -100 25 -100 37 -182 31 -219
-3 -18 -2 -46 1 -62 6 -29 6 -29 45 33 67 106 185 357 228 482 82 242 152 591
121 611 -17 10 -141 -24 -173 -47 -24 -16 -28 -17 -28 -4 0 9 6 16 13 16 8 0
19 11 25 25 8 17 20 25 36 25 35 0 38 12 10 39 -14 13 -23 30 -20 37 3 8 0 17
-7 21 -7 5 -18 19 -25 32 -12 20 -12 25 0 33 11 7 10 11 -3 20 -14 10 -14 13
3 30 19 19 19 21 2 39 -9 10 -20 19 -24 19 -21 0 -70 60 -70 85 0 15 -4 24
-10 20 -5 -3 -10 -1 -10 4 0 6 4 11 9 11 5 0 3 14 -6 31 -11 21 -13 43 -8 76
9 60 50 150 72 157 10 3 38 31 63 61 47 58 54 61 93 46 25 -10 25 -9 16 22 -6
18 -12 43 -15 57 -36 182 -157 476 -282 685 -88 147 -112 179 -126 165 -8 -8
-6 -16 9 -27 18 -14 18 -15 2 -9 -10 3 -21 6 -23 6 -2 0 -4 11 -4 25 0 14 5
25 10 25 6 0 3 11 -7 25 l-18 24 -17 -20 c-16 -19 -19 -19 -34 -5 -22 23 -28
20 -43 -19 -14 -39 -25 -44 -40 -18 -8 15 -10 14 -17 -12 -6 -26 -8 -27 -15
-10 -6 17 -8 16 -8 -7 -1 -16 4 -28 9 -28 17 0 11 -27 -7 -34 -14 -6 -15 -9
-4 -15 9 -6 10 -11 2 -15 -6 -4 -11 -3 -11 2 0 5 -10 12 -21 15 -17 4 -19 3
-10 -6 17 -17 13 -36 -6 -32 -14 2 -18 12 -17 44 1 36 -2 42 -25 48 -15 4 -26
2 -29 -5 -6 -18 -29 -14 -34 6 -9 33 2 44 27 28 22 -15 23 -14 27 19 2 19 2
35 -2 35 -3 0 -11 4 -19 9 -11 7 -9 13 8 32 46 52 51 60 51 78 0 27 -31 36
-47 15 -7 -10 -13 -22 -13 -28 0 -5 -6 -2 -13 9 -8 10 -19 15 -25 11 -12 -7
-16 16 -13 84 3 81 -90 128 -178 89 -55 -24 -59 -24 -63 4 -2 12 -7 22 -13 22
-5 1 -20 6 -32 13 -19 10 -28 10 -53 -3 -32 -17 -50 -13 -50 11 0 9 -11 14
-30 14 -16 0 -30 5 -30 10 0 6 -7 10 -15 10 -8 0 -15 -5 -15 -11 0 -5 -5 -7
-12 -3 -20 13 -117 10 -123 -3 -2 -7 -22 -16 -45 -19 -22 -4 -40 -10 -40 -15
0 -5 -11 -9 -24 -9 -14 0 -32 -7 -41 -16 -13 -13 -38 -17 -110 -18 -73 -1 -91
-4 -83 -13 6 -7 19 -13 29 -13 17 0 18 -3 7 -20 -10 -17 -14 -18 -16 -5 -4 18
-18 20 -26 3 -5 -10 -7 -10 -12 0 -3 6 -10 12 -15 12 -6 0 -8 -4 -5 -9 3 -4
-6 -13 -19 -19 -14 -7 -25 -16 -25 -21 0 -7 -8 -7 -22 -2 -13 5 -22 14 -21 20
2 6 -8 11 -21 11 -33 0 -42 32 -22 75 9 19 21 37 26 40 21 13 9 31 -27 42 -29
9 -40 9 -45 0 -11 -17 -10 -8 6 44 11 35 12 49 3 58 -9 9 -8 14 3 21 12 7 12
12 2 22 -6 6 -12 20 -12 30 0 11 -5 15 -14 12 -12 -5 -13 -11 -4 -30 6 -13 8
-27 5 -31 -13 -13 -22 9 -20 52 2 62 -15 72 -57 35 -19 -17 -38 -30 -43 -30
-9 0 -6 32 9 80 4 14 4 22 -1 18 -4 -4 -24 11 -45 34 -22 22 -44 37 -50 33
-18 -11 -59 4 -71 26 -8 17 -7 25 8 42 10 11 12 17 5 13 -7 -5 -15 1 -21 16
-5 13 -18 32 -30 42 -29 27 -26 50 11 79 l31 25 -28 26 -28 26 -186 -1 c-102
-1 -220 -5 -261 -10z m584 -494 c11 -8 28 -15 39 -15 10 0 16 -4 13 -9 -3 -5
1 -11 8 -14 8 -3 17 -1 19 6 2 7 8 9 12 5 4 -4 3 -14 -3 -21 -7 -8 -9 -17 -5
-20 3 -4 1 -12 -5 -20 -16 -19 -3 -57 19 -57 12 0 16 -5 13 -15 -11 -27 -134
-48 -134 -23 0 7 -15 20 -33 28 -56 26 -62 111 -9 135 12 5 22 15 22 22 0 17
20 16 44 -2z m-94 -261 c0 -8 5 -14 10 -14 6 0 10 -7 10 -15 0 -8 -7 -15 -15
-15 -8 0 -15 -9 -15 -20 0 -12 7 -20 17 -20 14 0 14 -3 5 -12 -10 -10 -15 -10
-21 1 -6 9 -14 10 -27 3 -11 -5 -25 -7 -33 -4 -8 2 -18 -3 -23 -12 -10 -18
-53 -22 -63 -5 -4 6 -19 7 -36 4 -33 -7 -36 -1 -13 23 15 15 15 16 -2 22 -10
4 11 7 46 7 39 1 68 -4 72 -11 4 -6 8 5 8 25 0 38 12 54 45 61 25 6 35 1 35
-18z m1076 -696 c-2 -124 -18 -148 -50 -75 l-14 32 -1 -32 c-1 -41 -18 -52
-27 -16 -4 15 -17 44 -30 63 -15 24 -21 44 -17 62 6 32 37 45 60 26 12 -9 17
-10 20 -2 2 7 12 10 22 7 11 -3 21 2 24 11 12 32 15 14 13 -76z m-224 -23 c5
-6 8 -4 8 5 0 13 1 13 10 0 13 -19 13 -77 0 -82 -6 -2 -6 -8 0 -18 8 -12 11
-11 16 7 9 32 24 18 24 -23 0 -22 -5 -34 -14 -34 -11 0 -13 -10 -9 -39 4 -26
0 -46 -10 -61 -15 -21 -15 -21 -22 7 -5 15 -7 35 -6 44 1 10 -12 20 -41 28
l-43 13 30 12 29 12 -37 17 c-49 23 -51 29 -16 52 19 14 27 26 23 38 -4 11 0
17 11 17 9 0 13 5 10 11 -9 13 27 8 37 -6z"/>
<path d="M1230 4303 c-8 -3 -32 -22 -52 -41 -35 -34 -38 -40 -38 -95 0 -72 19
-110 72 -143 l42 -27 53 17 c73 23 103 64 103 137 0 63 -6 74 -41 82 -37 9
-79 45 -72 62 4 11 -2 15 -23 14 -16 0 -36 -3 -44 -6z"/>
<path d="M567 4033 c-4 -3 -7 -14 -7 -24 0 -30 -19 -32 -31 -2 -10 28 -10 28
-65 -57 -140 -219 -267 -516 -330 -775 -56 -234 -80 -609 -54 -861 59 -580
315 -1117 731 -1533 416 -416 953 -672 1533 -731 153 -16 526 -8 656 14 555
93 1027 334 1409 719 96 97 115 122 92 122 -5 0 -13 3 -17 7 -11 12 -46 10
-39 -2 3 -5 1 -10 -4 -10 -6 0 -11 -11 -11 -25 0 -16 -6 -25 -16 -25 -12 0
-14 -3 -6 -13 14 -16 -1 -42 -19 -32 -7 5 -49 9 -93 11 -45 1 -84 3 -88 3 -5
1 -8 15 -8 31 0 34 -30 70 -60 70 -10 0 -24 8 -29 18 -9 14 -12 15 -20 3 -11
-18 -31 -5 -31 20 0 26 -37 20 -60 -11 -10 -13 -27 -24 -38 -25 -29 -2 -52
-24 -52 -50 0 -12 -3 -36 -6 -53 -6 -28 -8 -30 -32 -21 -22 9 -29 6 -43 -13
-17 -22 -18 -22 -25 -4 -7 17 -8 17 -19 2 -15 -20 -41 -12 -50 17 -6 19 -8 20
-12 5 -7 -29 -23 -20 -23 12 0 20 -5 30 -15 30 -17 0 -21 25 -5 35 14 9 0 36
-19 34 -58 -5 -84 16 -55 46 14 13 13 15 -5 15 -29 0 -59 36 -66 81 -4 22 -10
39 -14 39 -4 0 -15 14 -24 30 -10 17 -27 30 -37 30 -16 0 -17 4 -10 29 6 23 5
29 -5 25 -9 -4 -18 8 -26 36 -8 27 -17 39 -26 36 -8 -4 -13 2 -13 16 0 19 -6
16 -40 -22 -37 -42 -44 -58 -41 -86 1 -6 -13 -15 -31 -20 -22 -7 -33 -16 -34
-29 -1 -11 -2 -25 -3 -32 -1 -6 -10 -9 -20 -6 -13 3 -18 10 -14 20 5 13 -1 14
-33 10 -21 -3 -55 -9 -74 -14 -33 -8 -34 -10 -15 -21 17 -10 17 -11 3 -12 -9
0 -20 5 -23 10 -3 5 -19 10 -36 10 -24 0 -29 4 -29 25 0 17 -5 25 -18 25 -10
0 -23 5 -30 12 -9 9 -12 9 -12 0 0 -8 -8 -10 -24 -6 -14 3 -29 0 -39 -10 -10
-10 -18 -12 -22 -6 -3 5 -28 10 -55 10 -47 0 -69 17 -55 41 4 5 0 6 -8 3 -8
-3 -17 2 -20 10 -4 9 -14 16 -24 16 -14 0 -18 -8 -18 -32 0 -27 -4 -34 -23
-36 -13 -2 -29 1 -36 7 -7 6 -17 7 -22 2 -15 -13 -84 -21 -84 -9 0 5 -7 8 -15
4 -22 -8 -19 31 5 77 11 20 20 42 20 49 0 6 6 19 13 27 7 9 21 36 31 61 10 25
23 54 29 65 5 11 14 33 18 50 4 16 19 69 33 118 14 48 26 92 26 99 0 6 8 29
17 50 12 27 23 38 39 38 51 0 30 55 -34 90 -20 11 -44 24 -52 29 -84 52 -141
81 -158 81 -26 0 -42 -28 -42 -70 0 -34 18 -45 100 -61 25 -5 53 -17 63 -27
16 -17 17 -21 2 -58 -37 -94 -114 -231 -162 -290 -29 -35 -53 -66 -53 -68 0
-5 -99 -112 -120 -131 -7 -5 -31 -28 -55 -50 -71 -65 -97 -85 -112 -85 -7 0
-13 -4 -13 -9 0 -5 -26 -22 -57 -37 -32 -16 -64 -37 -71 -46 -7 -10 -22 -18
-33 -18 -10 0 -19 -4 -19 -10 0 -15 -16 -12 -34 5 -8 8 -17 15 -21 15 -3 0
-20 10 -36 23 -20 14 -45 22 -72 22 -32 0 -43 4 -45 17 -2 13 1 16 12 12 11
-4 16 -1 16 10 0 11 -9 16 -30 16 -30 0 -30 1 -30 53 0 28 -5 59 -10 67 -9 13
-10 13 -10 0 -1 -8 -6 -4 -11 9 -6 16 -6 27 0 31 6 3 -3 14 -19 24 -17 10 -30
26 -30 37 0 10 -6 28 -12 39 -11 17 -10 22 2 30 8 5 15 14 15 20 0 6 6 14 13
19 9 5 5 11 -13 19 -14 6 -25 17 -26 24 0 7 -13 23 -30 36 l-29 24 0 -26 c0
-23 -4 -26 -36 -26 -19 0 -33 -4 -29 -9 3 -6 -12 -11 -32 -13 -24 -2 -37 -8
-35 -15 1 -7 -5 -13 -13 -13 -13 0 -19 18 -18 57 0 7 -11 9 -34 6 -41 -7 -83
13 -83 38 0 10 -5 30 -12 44 -11 24 -12 25 -31 8 -19 -17 -20 -17 -15 2 3 11
9 29 14 40 8 20 7 20 -11 1 -11 -10 -20 -15 -21 -10 -1 5 -6 23 -10 39 l-7 30
-7 -25 c-5 -15 -8 -18 -9 -8 -1 11 -13 19 -36 24 -38 7 -69 34 -47 42 45 15
55 74 14 80 -13 2 -26 10 -29 18 -6 17 4 64 15 63 25 -4 33 3 31 29 -2 15 0
32 4 39 4 6 3 14 -2 18 -6 3 -8 12 -4 20 3 8 0 15 -6 15 -6 0 -16 -11 -21 -24
-5 -13 -14 -27 -20 -31 -6 -4 -15 -17 -20 -29 -5 -12 -8 40 -8 131 0 159 -1
167 -34 250 -28 73 -69 84 -158 44 -8 -4 -22 -22 -30 -39 -9 -18 -23 -32 -33
-32 -10 0 -16 4 -13 8 7 12 -38 35 -60 30 -15 -3 -18 -10 -16 -36 2 -17 -1
-32 -6 -32 -12 0 -22 49 -12 55 4 2 5 16 2 30 -3 18 0 25 11 25 9 0 18 -8 20
-17 4 -15 6 -14 12 5 4 13 19 28 32 33 25 9 23 29 -2 29 -9 0 -12 6 -9 15 4 8
12 15 19 15 7 0 16 7 19 16 8 22 8 26 -4 19 -5 -3 -10 -1 -10 4 0 6 -8 11 -19
11 -13 0 -20 -10 -25 -31 -5 -26 -10 -30 -33 -27 -17 2 -28 9 -28 18 0 18 -35
26 -45 10 -4 -7 -17 -9 -34 -4 -33 8 -60 63 -47 97 4 12 6 28 4 35 -3 7 -2 20
2 30 5 14 7 14 16 2 9 -12 10 -10 6 7 -4 16 1 23 21 28 17 4 22 9 15 16 -19
19 22 121 46 117 11 -2 17 9 22 37 4 22 14 44 25 50 10 5 32 25 49 43 17 18
42 39 55 45 14 7 35 28 48 47 18 28 32 36 66 41 23 4 71 24 107 46 35 22 87
50 114 62 28 13 61 29 75 36 38 18 154 60 252 89 l86 27 94 100 c74 80 98 99
116 96 50 -9 39 25 -47 141 -39 52 -60 72 -76 72 -55 0 -52 -59 4 -95 49 -31
51 -60 5 -101 -22 -19 -59 -47 -84 -61 -25 -14 -56 -33 -70 -43 -27 -18 -193
-80 -215 -80 -7 0 -26 -5 -42 -11 -38 -15 -80 -19 -114 -9 -20 6 -29 5 -30 -3
-1 -15 -17 23 -18 41 -1 9 9 12 27 11 15 -2 27 1 27 6 0 11 -36 10 -74 -1 -17
-5 -22 -4 -17 4 5 8 2 10 -8 6 -9 -3 -16 -1 -16 5 0 6 8 11 19 11 22 0 45 25
36 40 -3 5 -40 10 -81 10 -41 0 -74 4 -74 9 0 5 -9 13 -20 16 -11 3 -20 15
-20 26 0 11 -7 19 -16 19 -12 0 -15 7 -12 25 4 20 1 25 -16 25 -15 0 -17 -3
-8 -9 17 -10 -1 -26 -40 -36 -21 -5 -35 0 -62 20 -33 25 -36 31 -36 81 0 30 4
54 10 54 10 0 6 62 -5 80 -3 6 1 10 10 10 12 0 15 5 11 16 -4 10 1 22 11 29
15 11 15 15 4 29 -7 9 -20 16 -28 16 -8 0 -19 15 -25 33 -11 30 -12 31 -18 9
l-5 -24 -20 23 c-17 19 -18 22 -2 16 14 -5 17 0 17 33 0 41 -2 45 -13 33z"/>
<path d="M1772 2657 c-45 -17 -93 -72 -114 -131 -22 -61 -23 -168 -4 -204 8
-15 19 -41 25 -57 20 -54 96 -122 150 -135 72 -17 120 -1 169 57 55 64 70 132
48 225 -25 110 -86 193 -170 234 -56 27 -58 27 -104 11z"/>
<path d="M3658 1552 c-21 -15 -50 -53 -69 -88 -27 -54 -32 -72 -33 -145 -1
-87 23 -169 50 -169 6 0 15 -7 18 -16 3 -8 10 -12 16 -9 5 3 10 1 10 -4 0 -19
18 -12 25 9 4 14 15 20 34 20 31 0 75 43 106 104 16 32 20 59 20 152 0 99 -3
116 -21 141 -17 23 -29 28 -70 30 -40 2 -56 -2 -86 -25z"/>
<path d="M4346 1481 c-52 -57 -73 -233 -38 -317 29 -68 55 -94 96 -94 31 0 39
6 63 41 51 78 42 266 -18 348 -33 46 -73 55 -103 22z"/>
</g>
</svg>
